<mxfile host="app.diagrams.net" agent="Mozilla/5.0 (X11; Ubuntu; Linux x86_64; rv:130.0) Gecko/20100101 Firefox/130.0" version="24.7.12">
  <diagram name="Page-1" id="NMfAQ61pdz57pdOC4wLM">
    <mxGraphModel dx="2074" dy="1126" grid="1" gridSize="10" guides="1" tooltips="1" connect="1" arrows="1" fold="1" page="1" pageScale="1" pageWidth="850" pageHeight="1100" math="0" shadow="0">
      <root>
        <mxCell id="0" />
        <mxCell id="1" parent="0" />
        <mxCell id="7wYS-PvPPILCzykXi2fk-1" value="" style="rounded=0;whiteSpace=wrap;html=1;fillColor=none;" parent="1" vertex="1">
          <mxGeometry x="315" y="80" width="200" height="640" as="geometry" />
        </mxCell>
        <mxCell id="gNVla98ZM9sIJxjHNlG1-1" value="&lt;font style=&quot;font-size: 18px;&quot;&gt;Account Holder&lt;br&gt;&lt;/font&gt;" style="shape=umlActor;verticalLabelPosition=bottom;verticalAlign=top;html=1;outlineConnect=0;" parent="1" vertex="1">
          <mxGeometry x="140" y="230" width="80" height="160" as="geometry" />
        </mxCell>
        <mxCell id="gNVla98ZM9sIJxjHNlG1-2" value="Log in" style="ellipse;whiteSpace=wrap;html=1;verticalAlign=middle;fontSize=18;" parent="1" vertex="1">
          <mxGeometry x="355" y="180" width="120" height="80" as="geometry" />
        </mxCell>
        <mxCell id="gNVla98ZM9sIJxjHNlG1-12" style="rounded=0;orthogonalLoop=1;jettySize=auto;html=1;endArrow=none;endFill=0;" parent="1" source="gNVla98ZM9sIJxjHNlG1-3" edge="1">
          <mxGeometry relative="1" as="geometry">
            <mxPoint x="220" y="600" as="targetPoint" />
            <mxPoint x="355" y="620" as="sourcePoint" />
          </mxGeometry>
        </mxCell>
        <mxCell id="gNVla98ZM9sIJxjHNlG1-3" value="&lt;font style=&quot;font-size: 18px;&quot;&gt;Create in-person event&lt;br style=&quot;font-size: 18px;&quot;&gt;&lt;/font&gt;" style="ellipse;whiteSpace=wrap;html=1;verticalAlign=middle;fontSize=18;" parent="1" vertex="1">
          <mxGeometry x="355" y="630" width="120" height="80" as="geometry" />
        </mxCell>
        <mxCell id="gNVla98ZM9sIJxjHNlG1-4" value="&lt;font style=&quot;font-size: 18px;&quot;&gt;Create online event&lt;br style=&quot;font-size: 18px;&quot;&gt;&lt;/font&gt;" style="ellipse;whiteSpace=wrap;html=1;verticalAlign=middle;fontSize=18;" parent="1" vertex="1">
          <mxGeometry x="355" y="540" width="120" height="80" as="geometry" />
        </mxCell>
        <mxCell id="gNVla98ZM9sIJxjHNlG1-5" value="&lt;font style=&quot;font-size: 18px;&quot;&gt;Search for events&lt;br style=&quot;font-size: 18px;&quot;&gt;&lt;/font&gt;" style="ellipse;whiteSpace=wrap;html=1;verticalAlign=middle;fontSize=18;" parent="1" vertex="1">
          <mxGeometry x="355" y="270" width="120" height="80" as="geometry" />
        </mxCell>
        <mxCell id="gNVla98ZM9sIJxjHNlG1-6" value="&lt;font style=&quot;font-size: 18px;&quot;&gt;View event details&lt;br style=&quot;font-size: 18px;&quot;&gt;&lt;/font&gt;" style="ellipse;whiteSpace=wrap;html=1;verticalAlign=middle;fontSize=18;" parent="1" vertex="1">
          <mxGeometry x="355" y="360" width="120" height="80" as="geometry" />
        </mxCell>
        <mxCell id="gNVla98ZM9sIJxjHNlG1-7" value="&lt;font style=&quot;font-size: 18px;&quot;&gt;Register for event&lt;br style=&quot;font-size: 18px;&quot;&gt;&lt;/font&gt;" style="ellipse;whiteSpace=wrap;html=1;verticalAlign=middle;fontSize=18;" parent="1" vertex="1">
          <mxGeometry x="355" y="450" width="120" height="80" as="geometry" />
        </mxCell>
        <mxCell id="gNVla98ZM9sIJxjHNlG1-13" style="rounded=0;orthogonalLoop=1;jettySize=auto;html=1;endArrow=none;endFill=0;" parent="1" source="gNVla98ZM9sIJxjHNlG1-4" edge="1">
          <mxGeometry relative="1" as="geometry">
            <mxPoint x="220" y="600" as="targetPoint" />
            <mxPoint x="355" y="530" as="sourcePoint" />
          </mxGeometry>
        </mxCell>
        <mxCell id="gNVla98ZM9sIJxjHNlG1-15" style="rounded=0;orthogonalLoop=1;jettySize=auto;html=1;endArrow=none;endFill=0;" parent="1" source="gNVla98ZM9sIJxjHNlG1-5" edge="1">
          <mxGeometry relative="1" as="geometry">
            <mxPoint x="220" y="320" as="targetPoint" />
            <mxPoint x="355" y="260" as="sourcePoint" />
          </mxGeometry>
        </mxCell>
        <mxCell id="gNVla98ZM9sIJxjHNlG1-16" style="rounded=0;orthogonalLoop=1;jettySize=auto;html=1;endArrow=none;endFill=0;" parent="1" source="gNVla98ZM9sIJxjHNlG1-6" edge="1">
          <mxGeometry relative="1" as="geometry">
            <mxPoint x="220" y="320" as="targetPoint" />
            <mxPoint x="355" y="350" as="sourcePoint" />
          </mxGeometry>
        </mxCell>
        <mxCell id="gNVla98ZM9sIJxjHNlG1-17" style="rounded=0;orthogonalLoop=1;jettySize=auto;html=1;endArrow=none;endFill=0;" parent="1" source="gNVla98ZM9sIJxjHNlG1-7" edge="1">
          <mxGeometry relative="1" as="geometry">
            <mxPoint x="220" y="320" as="targetPoint" />
            <mxPoint x="355" y="440" as="sourcePoint" />
          </mxGeometry>
        </mxCell>
        <mxCell id="7wYS-PvPPILCzykXi2fk-3" value="&lt;font style=&quot;font-size: 18px;&quot;&gt;Guest&lt;/font&gt;" style="shape=umlActor;verticalLabelPosition=bottom;verticalAlign=top;html=1;outlineConnect=0;" parent="1" vertex="1">
          <mxGeometry x="610" y="190" width="80" height="160" as="geometry" />
        </mxCell>
        <mxCell id="7wYS-PvPPILCzykXi2fk-4" style="rounded=0;orthogonalLoop=1;jettySize=auto;html=1;endArrow=none;endFill=0;" parent="1" source="gNVla98ZM9sIJxjHNlG1-2" edge="1">
          <mxGeometry relative="1" as="geometry">
            <mxPoint x="600" y="270" as="targetPoint" />
            <mxPoint x="448.9138864176175" y="122.99729489281708" as="sourcePoint" />
          </mxGeometry>
        </mxCell>
        <mxCell id="7wYS-PvPPILCzykXi2fk-5" style="rounded=0;orthogonalLoop=1;jettySize=auto;html=1;endArrow=none;endFill=0;" parent="1" source="gNVla98ZM9sIJxjHNlG1-5" edge="1">
          <mxGeometry relative="1" as="geometry">
            <mxPoint x="600" y="270" as="targetPoint" />
            <mxPoint x="463.4674568715491" y="203.5787628023752" as="sourcePoint" />
          </mxGeometry>
        </mxCell>
        <mxCell id="7wYS-PvPPILCzykXi2fk-6" style="rounded=0;orthogonalLoop=1;jettySize=auto;html=1;endArrow=none;endFill=0;" parent="1" source="gNVla98ZM9sIJxjHNlG1-6" edge="1">
          <mxGeometry relative="1" as="geometry">
            <mxPoint x="600" y="270" as="targetPoint" />
            <mxPoint x="475" y="270" as="sourcePoint" />
          </mxGeometry>
        </mxCell>
        <mxCell id="7wYS-PvPPILCzykXi2fk-7" value="&lt;font style=&quot;font-size: 18px;&quot;&gt;Create account&lt;br style=&quot;font-size: 18px;&quot;&gt;&lt;/font&gt;" style="ellipse;whiteSpace=wrap;html=1;verticalAlign=middle;fontSize=18;" parent="1" vertex="1">
          <mxGeometry x="355" y="90" width="120" height="80" as="geometry" />
        </mxCell>
        <mxCell id="7wYS-PvPPILCzykXi2fk-8" style="rounded=0;orthogonalLoop=1;jettySize=auto;html=1;endArrow=none;endFill=0;" parent="1" source="7wYS-PvPPILCzykXi2fk-7" edge="1">
          <mxGeometry relative="1" as="geometry">
            <mxPoint x="600" y="270" as="targetPoint" />
            <mxPoint x="439.9296614533105" y="36.38383022915559" as="sourcePoint" />
          </mxGeometry>
        </mxCell>
        <mxCell id="3qakg0atJeh9le5IjD0A-1" value="&lt;font style=&quot;font-size: 18px;&quot;&gt;Premium User&lt;br&gt;&lt;/font&gt;" style="shape=umlActor;verticalLabelPosition=bottom;verticalAlign=top;html=1;outlineConnect=0;" vertex="1" parent="1">
          <mxGeometry x="140" y="510" width="80" height="160" as="geometry" />
        </mxCell>
        <mxCell id="3qakg0atJeh9le5IjD0A-3" value="" style="endArrow=block;html=1;rounded=0;endFill=0;endSize=20;" edge="1" parent="1">
          <mxGeometry width="50" height="50" relative="1" as="geometry">
            <mxPoint x="180" y="500" as="sourcePoint" />
            <mxPoint x="180" y="420" as="targetPoint" />
          </mxGeometry>
        </mxCell>
      </root>
    </mxGraphModel>
  </diagram>
</mxfile>
